<svg id="visual" viewBox="0 0 1920 300" width="1920" height="300" xmlns="http://www.w3.org/2000/svg"
    xmlns:xlink="http://www.w3.org/1999/xlink" version="1.1">
    <rect x="0" y="0" width="1920" height="300" fill="#ff4242"></rect>
    <path
        d="M0 156L13.8 150.5C27.7 145 55.3 134 83.2 129C111 124 139 125 166.8 117.8C194.7 110.7 222.3 95.3 250.2 89.8C278 84.3 306 88.7 333.8 91C361.7 93.3 389.3 93.7 417.2 99C445 104.3 473 114.7 500.8 106.2C528.7 97.7 556.3 70.3 584.2 67C612 63.7 640 84.3 667.8 92.8C695.7 101.3 723.3 97.7 751.2 88.7C779 79.7 807 65.3 834.8 68.8C862.7 72.3 890.3 93.7 918.2 109.2C946 124.7 974 134.3 1001.8 135C1029.7 135.7 1057.3 127.3 1085.2 111.5C1113 95.7 1141 72.3 1168.8 73.8C1196.7 75.3 1224.3 101.7 1252.2 107.8C1280 114 1308 100 1335.8 97.7C1363.7 95.3 1391.3 104.7 1419.2 98C1447 91.3 1475 68.7 1502.8 57.3C1530.7 46 1558.3 46 1586.2 58.2C1614 70.3 1642 94.7 1669.8 104.8C1697.7 115 1725.3 111 1753.2 106C1781 101 1809 95 1836.8 94.2C1864.7 93.3 1892.3 97.7 1906.2 99.8L1920 102L1920 301L1906.2 301C1892.3 301 1864.7 301 1836.8 301C1809 301 1781 301 1753.2 301C1725.3 301 1697.7 301 1669.8 301C1642 301 1614 301 1586.2 301C1558.3 301 1530.7 301 1502.8 301C1475 301 1447 301 1419.2 301C1391.3 301 1363.7 301 1335.8 301C1308 301 1280 301 1252.2 301C1224.3 301 1196.7 301 1168.8 301C1141 301 1113 301 1085.2 301C1057.3 301 1029.7 301 1001.8 301C974 301 946 301 918.2 301C890.3 301 862.7 301 834.8 301C807 301 779 301 751.2 301C723.3 301 695.7 301 667.8 301C640 301 612 301 584.2 301C556.3 301 528.7 301 500.8 301C473 301 445 301 417.2 301C389.3 301 361.7 301 333.8 301C306 301 278 301 250.2 301C222.3 301 194.7 301 166.8 301C139 301 111 301 83.2 301C55.3 301 27.7 301 13.8 301L0 301Z"
        fill="#dc2762"></path>
    <path
        d="M0 100L13.8 99.5C27.7 99 55.3 98 83.2 100.2C111 102.3 139 107.7 166.8 112.5C194.7 117.3 222.3 121.7 250.2 128.8C278 136 306 146 333.8 151C361.7 156 389.3 156 417.2 156.5C445 157 473 158 500.8 165.7C528.7 173.3 556.3 187.7 584.2 187.5C612 187.3 640 172.7 667.8 156C695.7 139.3 723.3 120.7 751.2 120.2C779 119.7 807 137.3 834.8 137C862.7 136.7 890.3 118.3 918.2 109.2C946 100 974 100 1001.8 110.2C1029.7 120.3 1057.3 140.7 1085.2 143.3C1113 146 1141 131 1168.8 137.5C1196.7 144 1224.3 172 1252.2 177.3C1280 182.7 1308 165.3 1335.8 163C1363.7 160.7 1391.3 173.3 1419.2 180.3C1447 187.3 1475 188.7 1502.8 177.7C1530.7 166.7 1558.3 143.3 1586.2 133.2C1614 123 1642 126 1669.8 122.8C1697.7 119.7 1725.3 110.3 1753.2 111.7C1781 113 1809 125 1836.8 130.7C1864.7 136.3 1892.3 135.7 1906.2 135.3L1920 135L1920 301L1906.2 301C1892.3 301 1864.7 301 1836.8 301C1809 301 1781 301 1753.2 301C1725.3 301 1697.7 301 1669.8 301C1642 301 1614 301 1586.2 301C1558.3 301 1530.7 301 1502.8 301C1475 301 1447 301 1419.2 301C1391.3 301 1363.7 301 1335.8 301C1308 301 1280 301 1252.2 301C1224.3 301 1196.7 301 1168.8 301C1141 301 1113 301 1085.2 301C1057.3 301 1029.7 301 1001.8 301C974 301 946 301 918.2 301C890.3 301 862.7 301 834.8 301C807 301 779 301 751.2 301C723.3 301 695.7 301 667.8 301C640 301 612 301 584.2 301C556.3 301 528.7 301 500.8 301C473 301 445 301 417.2 301C389.3 301 361.7 301 333.8 301C306 301 278 301 250.2 301C222.3 301 194.7 301 166.8 301C139 301 111 301 83.2 301C55.3 301 27.7 301 13.8 301L0 301Z"
        fill="#852c74"></path>
    <path
        d="M0 173L13.8 174.5C27.7 176 55.3 179 83.2 187.2C111 195.3 139 208.7 166.8 217.3C194.7 226 222.3 230 250.2 219.7C278 209.3 306 184.7 333.8 183.5C361.7 182.3 389.3 204.7 417.2 206.2C445 207.7 473 188.3 500.8 182C528.7 175.7 556.3 182.3 584.2 183C612 183.7 640 178.3 667.8 177.8C695.7 177.3 723.3 181.7 751.2 178.7C779 175.7 807 165.3 834.8 173.2C862.7 181 890.3 207 918.2 215C946 223 974 213 1001.8 207.7C1029.7 202.3 1057.3 201.7 1085.2 193.5C1113 185.3 1141 169.7 1168.8 166C1196.7 162.3 1224.3 170.7 1252.2 171.5C1280 172.3 1308 165.7 1335.8 168.8C1363.7 172 1391.3 185 1419.2 193.7C1447 202.3 1475 206.7 1502.8 204.7C1530.7 202.7 1558.3 194.3 1586.2 196.5C1614 198.7 1642 211.3 1669.8 218.7C1697.7 226 1725.3 228 1753.2 226.8C1781 225.7 1809 221.3 1836.8 215.5C1864.7 209.7 1892.3 202.3 1906.2 198.7L1920 195L1920 301L1906.2 301C1892.3 301 1864.7 301 1836.8 301C1809 301 1781 301 1753.2 301C1725.3 301 1697.7 301 1669.8 301C1642 301 1614 301 1586.2 301C1558.3 301 1530.7 301 1502.8 301C1475 301 1447 301 1419.2 301C1391.3 301 1363.7 301 1335.8 301C1308 301 1280 301 1252.2 301C1224.3 301 1196.7 301 1168.8 301C1141 301 1113 301 1085.2 301C1057.3 301 1029.7 301 1001.8 301C974 301 946 301 918.2 301C890.3 301 862.7 301 834.8 301C807 301 779 301 751.2 301C723.3 301 695.7 301 667.8 301C640 301 612 301 584.2 301C556.3 301 528.7 301 500.8 301C473 301 445 301 417.2 301C389.3 301 361.7 301 333.8 301C306 301 278 301 250.2 301C222.3 301 194.7 301 166.8 301C139 301 111 301 83.2 301C55.3 301 27.7 301 13.8 301L0 301Z"
        fill="#2d2958"></path>
    <path
        d="M0 224L13.8 223C27.7 222 55.3 220 83.2 223C111 226 139 234 166.8 240.7C194.7 247.3 222.3 252.7 250.2 253C278 253.3 306 248.7 333.8 251.5C361.7 254.3 389.3 264.7 417.2 262.7C445 260.7 473 246.3 500.8 242.3C528.7 238.3 556.3 244.7 584.2 246C612 247.3 640 243.7 667.8 244.8C695.7 246 723.3 252 751.2 250.8C779 249.7 807 241.3 834.8 239.2C862.7 237 890.3 241 918.2 247.2C946 253.3 974 261.7 1001.8 263.8C1029.7 266 1057.3 262 1085.2 258.5C1113 255 1141 252 1168.8 250.8C1196.7 249.7 1224.3 250.3 1252.2 254.3C1280 258.3 1308 265.7 1335.8 265.5C1363.7 265.3 1391.3 257.7 1419.2 255.2C1447 252.7 1475 255.3 1502.8 249.5C1530.7 243.7 1558.3 229.3 1586.2 226.7C1614 224 1642 233 1669.8 241.8C1697.7 250.7 1725.3 259.3 1753.2 260C1781 260.7 1809 253.3 1836.8 249C1864.7 244.7 1892.3 243.3 1906.2 242.7L1920 242L1920 301L1906.2 301C1892.3 301 1864.7 301 1836.8 301C1809 301 1781 301 1753.2 301C1725.3 301 1697.7 301 1669.8 301C1642 301 1614 301 1586.2 301C1558.3 301 1530.7 301 1502.8 301C1475 301 1447 301 1419.2 301C1391.3 301 1363.7 301 1335.8 301C1308 301 1280 301 1252.2 301C1224.3 301 1196.7 301 1168.8 301C1141 301 1113 301 1085.2 301C1057.3 301 1029.7 301 1001.8 301C974 301 946 301 918.2 301C890.3 301 862.7 301 834.8 301C807 301 779 301 751.2 301C723.3 301 695.7 301 667.8 301C640 301 612 301 584.2 301C556.3 301 528.7 301 500.8 301C473 301 445 301 417.2 301C389.3 301 361.7 301 333.8 301C306 301 278 301 250.2 301C222.3 301 194.7 301 166.8 301C139 301 111 301 83.2 301C55.3 301 27.7 301 13.8 301L0 301Z"
        fill="#001220"></path>
</svg>